<?xml version="1.0" encoding="UTF-8"?> <svg xmlns="http://www.w3.org/2000/svg" width="5" height="34" viewBox="0 0 5 34" fill="none"><path d="M1.1903 0.0512549C0.797898 -0.0610148 0.600364 -0.0102248 0.536299 0.420142C0.472233 0.85051 0.813918 1.09911 0.813918 1.52947C0.813918 1.95984 0.955393 2.3902 1.20365 2.76176C1.4519 3.13065 1.78024 3.56369 1.78024 4.54739C1.78024 5.53109 1.84697 6.95049 1.64943 7.93419C1.4519 8.92056 1.38783 8.85908 1.38783 9.53537C1.38783 10.2117 0.605702 12.7324 0.768534 14.6116C0.805906 15.0446 0.867302 15.2638 1.16093 15.8171C1.45457 16.3705 1.5213 17.2339 1.16093 18.2202C0.800567 19.2066 0.277368 19.5755 0.210633 20.2518C0.146568 20.9281 -0.149733 21.73 0.0958511 22.4063C0.341435 23.0826 0.533631 23.3927 0.896668 23.8845C1.2597 24.3764 1.25971 24.6864 1.25971 25.1783C1.25971 25.6701 1.25437 26.1032 0.896668 26.4106C0.53897 26.718 0.533631 26.9024 0.896668 27.3969C1.2597 27.8888 1.32377 27.8273 1.25971 28.8137C1.19564 29.8001 1.16094 31.3852 1.3558 32.3074C1.55334 33.2323 1.57736 33.3098 1.90836 33.4943C2.23937 33.6787 2.50364 33.5878 3.09091 33.5878C3.67817 33.5878 4.09993 33.5237 4.23073 33.5076C4.48432 33.4755 4.50835 32.9677 4.23073 32.842C3.99316 32.7324 4.23073 32.5587 4.00651 32.5106C3.54203 32.4117 3.0482 32.3876 2.63177 32.2646C2.21535 32.1417 1.99646 31.8343 2.21535 31.1553C2.43424 30.4763 2.82664 29.3082 2.89337 28.9981C2.95744 28.6907 3.187 28.7522 3.40055 28.8137C3.6141 28.8752 4.66051 28.7522 4.92478 27.6429C5.18638 26.5335 4.72724 25.9187 4.13997 25.5498C3.55004 25.181 3.35518 24.9965 3.61678 24.6864C3.87838 24.379 4.33751 23.1467 4.27078 21.853C4.20404 20.5592 3.87838 20.0059 3.81164 19.3269C3.74491 18.6506 3.55004 18.0331 3.94244 17.2953C4.33484 16.5576 4.72724 16.1245 4.72724 15.2638C4.72724 14.4031 4.26811 13.6011 4.00651 13.2937C3.74491 12.9863 3.91841 11.1472 3.40055 9.96841C3.15497 9.35093 3.98248 7.44502 3.40055 5.84116C3.0909 4.85479 3.09091 4.73183 2.89337 4.05554C2.69584 3.37925 2.50097 3.1948 2.69583 2.94621C2.89337 2.70028 3.15497 2.51584 2.82664 2.14695C2.49563 1.77807 2.30343 1.65511 1.9751 1.16058C1.64676 0.668737 1.5827 0.163525 1.1903 0.0512549Z" fill="white"></path></svg> 